<svg id="Header" xmlns="http://www.w3.org/2000/svg" width="" height="" viewBox="0 0 1064 1018">
  <defs>
    <style>
      .cls-1 {
        fill-rule: evenodd;
      }
    </style>
  </defs>
  <g id="Img">
    <path  className="cls-1" d="M41-5L34,17,26,39,22,54,15,81l-3,19L7,127,5,145,3,169,1,197,0,221v57l1,27,2,26,3,32,6,41,3,27,5,25,6,31,8,28,9,35,10,35,16,45,26,61,19,36,23,40,20,32,39,51,61,65,59,48,33,20,32,15,31,11,48,9h44l41-7,55-21,47-26,89-67,65-61,67-64,48-41,34-26,31-18,34-17,36-14,30-7,14-4,1-650H41Z"/>
  </g>
</svg>
